# xmcd
#
# Track frame offsets: 
#        150
#        22055
#        52548
#        80714
#        101380
#        125954
#        149356
#        171816
#        192232
#        213717
#        240522
#
# Disc length: 3475 seconds
#
# Revision: 0
# Processed by: cddbd v1.5.2PL0 Copyright (c) Steve Scherf et al.
# Submitted via: ExactAudioCopy v1.0b3
#
DISCID=9a0d910b
DTITLE=Mai Thien Van - Neu Anh Dung Hen
DYEAR=2009
DGENRE=
TTITLE0=Neu anh dung hen
TTITLE1=Tinh yeu don phuong
TTITLE2=Mai Thien Van, Quang Le - LK Ao em chua mac mot lan, Vong nhan
TTITLE2=cuoi
TTITLE3=Thu tim la vang
TTITLE4=Nguoi thuong ke nho
TTITLE5=Mai Thien Van, Mai Quoc Huy - Neu chung minh cach tro
TTITLE6=Hai vi sao lac
TTITLE7=Giot sau trinh nu
TTITLE8=Em cho anh tro lai
TTITLE9=Mai Thien Van, Mai Quoc Huy - Cho tinh yeu chung minh
TTITLE10=Vong tay giu tron an tinh
EXTD=
EXTT0=
EXTT1=
EXTT2=
EXTT3=
EXTT4=
EXTT5=
EXTT6=
EXTT7=
EXTT8=
EXTT9=
EXTT10=
PLAYORDER=
